<svg width="105" height="30" viewBox="0 0 290 76" fill="none" xmlns="http://www.w3.org/2000/svg">
<path d="M9.52 37.92L38.32 51.24V57.36L1.6 40.44V35.4L38.32 18.84V24.96L9.52 37.92ZM73.5871 18.84V60.24C73.5871 64.608 72.4351 68.04 70.1311 70.536C67.8751 73.032 64.5871 74.28 60.2671 74.28L55.6591 73.92L56.3071 68.88H59.9071C62.3551 68.88 64.0351 68.256 64.9471 67.008C65.9071 65.808 66.3871 64.032 66.3871 61.68V24.6L60.2671 23.16V19.2L73.5871 18.84ZM69.2671 1.92C72.3871 1.92 73.9471 3.72 73.9471 7.32C73.9471 8.808 73.4191 9.96 72.3631 10.776C71.3071 11.592 70.1791 12 68.9791 12C67.6831 12 66.6271 11.568 65.8111 10.704C64.9951 9.792 64.5871 8.544 64.5871 6.96C64.5871 5.376 65.0431 4.152 65.9551 3.288C66.8671 2.376 67.9711 1.92 69.2671 1.92ZM84.7516 21C89.9356 19.08 94.6876 18.12 99.0076 18.12C103.232 18.12 106.472 18.984 108.728 20.712C110.984 22.392 112.112 25.248 112.112 29.28V51.24L117.872 52.68V56.64L106.712 57L105.2 51.96C101.36 55.8 97.5676 57.72 93.8236 57.72C90.0796 57.72 87.2716 56.784 85.3996 54.912C83.5276 53.04 82.5916 50.376 82.5916 46.92C82.5916 39.48 88.1116 35.76 99.1516 35.76H104.912V30C104.912 25.68 102.632 23.52 98.0716 23.52C95.4796 23.52 93.3436 23.784 91.6636 24.312L90.7996 24.6L89.7916 30H85.1116L84.7516 21ZM104.912 40.44H99.8716C96.2716 40.44 93.7036 40.92 92.1676 41.88C90.6796 42.792 89.9356 44.232 89.9356 46.2C89.9356 48.072 90.3676 49.512 91.2316 50.52C92.1436 51.48 93.4396 51.96 95.1196 51.96C95.9356 51.96 96.7516 51.816 97.5676 51.528C98.4316 51.24 99.2476 50.88 100.016 50.448C100.832 50.016 101.552 49.56 102.176 49.08C102.8 48.552 103.304 48.072 103.688 47.64L104.912 46.2V40.44ZM139.503 45.48C137.391 45.48 135.591 45.264 134.103 44.832L133.743 51.6H144.903C149.607 51.6 153.183 52.488 155.631 54.264C158.079 56.04 159.303 58.728 159.303 62.328C159.303 66.216 157.719 69.288 154.551 71.544C151.383 73.848 146.727 75 140.583 75C129.063 75 123.303 71.52 123.303 64.56C123.303 61.536 124.911 58.968 128.127 56.856C128.895 56.376 129.807 55.944 130.863 55.56C129.567 55.368 128.511 54.912 127.695 54.192C126.927 53.472 126.543 52.656 126.543 51.744C126.543 50.16 127.479 47.856 129.351 44.832L130.287 43.32C129.855 43.176 129.255 42.744 128.487 42.024C127.767 41.304 127.167 40.584 126.687 39.864C125.391 37.848 124.743 35.28 124.743 32.16C124.743 27.6 126.159 24.12 128.991 21.72C131.871 19.32 135.735 18.12 140.583 18.12C143.271 18.12 145.407 18.456 146.991 19.128L147.783 19.488L160.383 19.2V23.16L153.399 24.168C154.695 25.896 155.343 28.32 155.343 31.44C155.343 36.144 153.927 39.672 151.095 42.024C148.263 44.328 144.399 45.48 139.503 45.48ZM143.103 57H135.183C134.943 57.096 134.463 57.384 133.743 57.864C133.071 58.392 132.543 58.872 132.159 59.304C131.055 60.552 130.503 61.944 130.503 63.48C130.503 65.832 131.415 67.44 133.239 68.304C135.111 69.168 137.919 69.6 141.663 69.6C148.863 69.6 152.463 67.32 152.463 62.76C152.463 60.552 151.671 59.04 150.087 58.224C148.551 57.408 146.223 57 143.103 57ZM140.223 23.16C134.703 23.16 131.943 26.04 131.943 31.8C131.943 34.44 132.615 36.552 133.959 38.136C135.303 39.672 137.247 40.44 139.791 40.44C142.719 40.44 144.831 39.768 146.127 38.424C147.471 37.032 148.143 34.824 148.143 31.8C148.143 26.04 145.503 23.16 140.223 23.16ZM176.94 18.84L177.588 24.096C181.14 20.112 184.764 18.12 188.46 18.12C190.428 18.12 192.324 18.408 194.148 18.984L194.94 19.2L194.58 29.64H189.9L188.82 24.24C184.692 24.24 181.212 26.112 178.38 29.856V51.24L185.58 53.04V57H165.06V53.04L171.18 51.24V24.6L165.06 23.16V19.2L176.94 18.84ZM215.122 57L238.954 6.6H246.514L222.682 57H215.122ZM252.264 51.24L281.064 37.92L252.264 24.96V18.84L288.984 35.4V40.44L252.264 57.36V51.24Z" fill="#252835"/>
<path d="M9.52 37.92L9.10964 37.0081L7.11084 37.9075L9.10022 38.8276L9.52 37.92ZM38.32 51.24H39.32V50.6007L38.7398 50.3324L38.32 51.24ZM38.32 57.36L37.9015 58.2682L39.32 58.9218V57.36H38.32ZM1.6 40.44H0.6V41.0803L1.18151 41.3482L1.6 40.44ZM1.6 35.4L1.18889 34.4884L0.6 34.754V35.4H1.6ZM38.32 18.84H39.32V17.292L37.9089 17.9284L38.32 18.84ZM38.32 24.96L38.7304 25.8719L39.32 25.6066V24.96H38.32ZM9.10022 38.8276L37.9002 52.1476L38.7398 50.3324L9.93978 37.0124L9.10022 38.8276ZM37.32 51.24V57.36H39.32V51.24H37.32ZM38.7385 56.4518L2.01849 39.5318L1.18151 41.3482L37.9015 58.2682L38.7385 56.4518ZM2.6 40.44V35.4H0.6V40.44H2.6ZM2.01111 36.3116L38.7311 19.7516L37.9089 17.9284L1.18889 34.4884L2.01111 36.3116ZM37.32 18.84V24.96H39.32V18.84H37.32ZM37.9096 24.0481L9.10964 37.0081L9.93037 38.8319L38.7304 25.8719L37.9096 24.0481ZM73.5871 18.84H74.5871V17.8126L73.56 17.8404L73.5871 18.84ZM70.1311 70.536L69.3962 69.8577L69.3892 69.8655L70.1311 70.536ZM60.2671 74.28L60.1892 75.277L60.2281 75.28H60.2671V74.28ZM55.6591 73.92L54.6672 73.7925L54.5332 74.8351L55.5812 74.917L55.6591 73.92ZM56.3071 68.88V67.88H55.4274L55.3152 68.7525L56.3071 68.88ZM64.9471 67.008L64.1662 66.3833L64.1526 66.4004L64.1397 66.418L64.9471 67.008ZM66.3871 24.6H67.3871V23.808L66.6161 23.6266L66.3871 24.6ZM60.2671 23.16H59.2671V23.952L60.038 24.1334L60.2671 23.16ZM60.2671 19.2L60.24 18.2004L59.2671 18.2267V19.2H60.2671ZM72.3631 10.776L71.7516 9.98471L71.7516 9.98471L72.3631 10.776ZM65.8111 10.704L65.0658 11.3708L65.0748 11.3808L65.084 11.3906L65.8111 10.704ZM65.9551 3.288L66.6428 4.01395L66.6526 4.00466L66.6622 3.9951L65.9551 3.288ZM72.5871 18.84V60.24H74.5871V18.84H72.5871ZM72.5871 60.24C72.5871 64.4309 71.4853 67.5946 69.3963 69.8577L70.8659 71.2143C73.3848 68.4854 74.5871 64.7851 74.5871 60.24H72.5871ZM69.3892 69.8655C67.3734 72.0957 64.3898 73.28 60.2671 73.28V75.28C64.7844 75.28 68.3768 73.9683 70.8729 71.2065L69.3892 69.8655ZM60.345 73.283L55.7369 72.923L55.5812 74.917L60.1892 75.277L60.345 73.283ZM56.6509 74.0475L57.2989 69.0075L55.3152 68.7525L54.6672 73.7925L56.6509 74.0475ZM56.3071 69.88H59.9071V67.88H56.3071V69.88ZM59.9071 69.88C62.4846 69.88 64.5649 69.2258 65.7545 67.598L64.1397 66.418C63.5052 67.2862 62.2256 67.88 59.9071 67.88V69.88ZM65.7279 67.6327C66.8877 66.1829 67.3871 64.1446 67.3871 61.68H65.3871C65.3871 63.9194 64.9264 65.4331 64.1662 66.3833L65.7279 67.6327ZM67.3871 61.68V24.6H65.3871V61.68H67.3871ZM66.6161 23.6266L60.4961 22.1866L60.038 24.1334L66.158 25.5734L66.6161 23.6266ZM61.2671 23.16V19.2H59.2671V23.16H61.2671ZM60.2941 20.1996L73.6141 19.8396L73.56 17.8404L60.24 18.2004L60.2941 20.1996ZM69.2671 2.92C70.6327 2.92 71.4861 3.30727 72.0214 3.92493C72.5804 4.56994 72.9471 5.64184 72.9471 7.32H74.9471C74.9471 5.39815 74.5337 3.77005 73.5328 2.61507C72.5081 1.43272 71.0215 0.919997 69.2671 0.919997V2.92ZM72.9471 7.32C72.9471 8.53902 72.532 9.38166 71.7516 9.98471L72.9745 11.5673C74.3061 10.5383 74.9471 9.07697 74.9471 7.32H72.9471ZM71.7516 9.98471C70.85 10.6814 69.9329 11 68.9791 11V13C70.4252 13 71.7641 12.5026 72.9745 11.5673L71.7516 9.98471ZM68.9791 11C67.9305 11 67.147 10.6621 66.5381 10.0174L65.084 11.3906C66.1072 12.4739 67.4356 13 68.9791 13V11ZM66.5563 10.0372C65.948 9.3573 65.5871 8.37232 65.5871 6.96H63.5871C63.5871 8.71567 64.0422 10.2267 65.0658 11.3708L66.5563 10.0372ZM65.5871 6.96C65.5871 5.57449 65.9794 4.64247 66.6428 4.01395L65.2673 2.56204C64.1068 3.66152 63.5871 5.1775 63.5871 6.96H65.5871ZM66.6622 3.9951C67.3856 3.27166 68.2348 2.92 69.2671 2.92V0.919997C67.7073 0.919997 66.3485 1.48034 65.248 2.58089L66.6622 3.9951ZM84.7516 21L84.4042 20.0623L83.7233 20.3144L83.7524 21.04L84.7516 21ZM108.728 20.712L108.119 21.506L108.13 21.514L108.728 20.712ZM112.112 51.24H111.112V52.0208L111.869 52.2101L112.112 51.24ZM117.872 52.68H118.872V51.8992L118.114 51.7099L117.872 52.68ZM117.872 56.64L117.904 57.6395L118.872 57.6083V56.64H117.872ZM106.712 57L105.754 57.2873L105.975 58.0243L106.744 57.9995L106.712 57ZM105.2 51.96L106.157 51.6727L105.676 50.069L104.492 51.2529L105.2 51.96ZM85.3996 54.912L86.1067 54.2049L86.1067 54.2049L85.3996 54.912ZM104.912 35.76V36.76H105.912V35.76H104.912ZM91.6636 24.312L91.3637 23.358L91.3555 23.3606L91.3473 23.3633L91.6636 24.312ZM90.7996 24.6L90.4833 23.6513L89.9246 23.8376L89.8165 24.4165L90.7996 24.6ZM89.7916 30V31H90.6222L90.7746 30.1835L89.7916 30ZM85.1116 30L84.1124 30.04L84.1508 31H85.1116V30ZM104.912 40.44H105.912V39.44H104.912V40.44ZM92.1676 41.88L92.6901 42.7326L92.6976 42.728L92.1676 41.88ZM91.2316 50.52L90.4723 51.1708L90.4889 51.1902L90.5066 51.2087L91.2316 50.52ZM97.5676 51.528L97.2513 50.5793L97.243 50.5821L97.2347 50.585L97.5676 51.528ZM100.016 50.448L99.5477 49.5642L99.5364 49.5702L99.5253 49.5764L100.016 50.448ZM102.176 49.08L102.785 49.8726L102.804 49.8584L102.822 49.8434L102.176 49.08ZM103.688 47.64L104.435 48.3044L104.442 48.2961L104.45 48.2876L103.688 47.64ZM104.912 46.2L105.674 46.8476L105.912 46.5676V46.2H104.912ZM85.0989 21.9377C90.2013 20.0479 94.8341 19.12 99.0076 19.12V17.12C94.5411 17.12 89.6698 18.1121 84.4042 20.0623L85.0989 21.9377ZM99.0076 19.12C103.114 19.12 106.105 19.9627 108.119 21.5059L109.336 19.9181C106.838 18.0053 103.349 17.12 99.0076 17.12V19.12ZM108.13 21.514C110.036 22.933 111.112 25.4192 111.112 29.28H113.112C113.112 25.0768 111.931 21.851 109.325 19.91L108.13 21.514ZM111.112 29.28V51.24H113.112V29.28H111.112ZM111.869 52.2101L117.629 53.6501L118.114 51.7099L112.354 50.2699L111.869 52.2101ZM116.872 52.68V56.64H118.872V52.68H116.872ZM117.839 55.6405L106.679 56.0005L106.744 57.9995L117.904 57.6395L117.839 55.6405ZM107.669 56.7127L106.157 51.6727L104.242 52.2473L105.754 57.2873L107.669 56.7127ZM104.492 51.2529C100.755 54.9899 97.2028 56.72 93.8236 56.72V58.72C97.9323 58.72 101.964 56.6101 105.907 52.6671L104.492 51.2529ZM93.8236 56.72C90.2337 56.72 87.725 55.8232 86.1067 54.2049L84.6925 55.6191C86.8181 57.7448 89.9254 58.72 93.8236 58.72V56.72ZM86.1067 54.2049C84.4744 52.5726 83.5916 50.1951 83.5916 46.92H81.5916C81.5916 50.5569 82.5807 53.5074 84.6925 55.6191L86.1067 54.2049ZM83.5916 46.92C83.5916 43.4867 84.8422 41.0291 87.2904 39.3793C89.8088 37.6821 93.7125 36.76 99.1516 36.76V34.76C93.5506 34.76 89.1743 35.6979 86.1727 37.7207C83.1009 39.7908 81.5916 42.9133 81.5916 46.92H83.5916ZM99.1516 36.76H104.912V34.76H99.1516V36.76ZM105.912 35.76V30H103.912V35.76H105.912ZM105.912 30C105.912 27.6716 105.294 25.7453 103.889 24.414C102.494 23.0924 100.493 22.52 98.0716 22.52V24.52C100.21 24.52 101.629 25.0276 102.514 25.866C103.389 26.6947 103.912 28.0084 103.912 30H105.912ZM98.0716 22.52C95.4211 22.52 93.1748 22.7888 91.3637 23.358L91.9634 25.266C93.5123 24.7792 95.538 24.52 98.0716 24.52V22.52ZM91.3473 23.3633L90.4833 23.6513L91.1158 25.5487L91.9798 25.2607L91.3473 23.3633ZM89.8165 24.4165L88.8085 29.8165L90.7746 30.1835L91.7826 24.7835L89.8165 24.4165ZM89.7916 29H85.1116V31H89.7916V29ZM86.1108 29.96L85.7508 20.96L83.7524 21.04L84.1124 30.04L86.1108 29.96ZM104.912 39.44H99.8716V41.44H104.912V39.44ZM99.8716 39.44C96.2366 39.44 93.4252 39.9147 91.6376 41.032L92.6976 42.728C93.9819 41.9253 96.3065 41.44 99.8716 41.44V39.44ZM91.645 41.0274C89.8179 42.1472 88.9356 43.9369 88.9356 46.2H90.9356C90.9356 44.5271 91.5412 43.4368 92.6901 42.7326L91.645 41.0274ZM88.9356 46.2C88.9356 48.2138 89.3998 49.9195 90.4723 51.1708L91.9908 49.8692C91.3353 49.1045 90.9356 47.9302 90.9356 46.2H88.9356ZM90.5066 51.2087C91.6551 52.4177 93.2435 52.96 95.1196 52.96V50.96C93.6356 50.96 92.632 50.5423 91.9566 49.8313L90.5066 51.2087ZM95.1196 52.96C96.0556 52.96 96.984 52.7944 97.9004 52.471L97.2347 50.585C96.5191 50.8376 95.8155 50.96 95.1196 50.96V52.96ZM97.8838 52.4767C98.8061 52.1692 99.6806 51.7838 100.506 51.3196L99.5253 49.5764C98.8146 49.9762 98.057 50.3108 97.2513 50.5793L97.8838 52.4767ZM100.483 51.3318C101.341 50.8778 102.11 50.3922 102.785 49.8726L101.566 48.2874C100.993 48.7278 100.322 49.1542 99.5477 49.5642L100.483 51.3318ZM102.822 49.8434C103.468 49.2963 104.01 48.7829 104.435 48.3044L102.94 46.9756C102.597 47.3611 102.131 47.8077 101.53 48.3166L102.822 49.8434ZM104.45 48.2876L105.674 46.8476L104.15 45.5524L102.926 46.9924L104.45 48.2876ZM105.912 46.2V40.44H103.912V46.2H105.912ZM134.103 44.832L134.381 43.8717L133.171 43.5202L133.104 44.7789L134.103 44.832ZM133.743 51.6L132.744 51.5469L132.688 52.6H133.743V51.6ZM155.631 54.264L156.218 53.4546L156.218 53.4546L155.631 54.264ZM154.551 71.544L153.97 70.7294L153.962 70.7353L154.551 71.544ZM128.127 56.856L127.597 56.008L127.587 56.014L127.578 56.0201L128.127 56.856ZM130.863 55.56L131.204 56.4998L131.009 54.5708L130.863 55.56ZM127.695 54.192L127.011 54.9215L127.022 54.9319L127.033 54.9418L127.695 54.192ZM129.351 44.832L130.201 45.3584L130.201 45.3584L129.351 44.832ZM130.287 43.32L131.137 43.8464L131.802 42.7712L130.603 42.3713L130.287 43.32ZM128.487 42.024L127.779 42.7311L127.791 42.7425L127.803 42.7535L128.487 42.024ZM126.687 39.864L125.845 40.4048L125.85 40.4118L125.854 40.4187L126.687 39.864ZM128.991 21.72L128.35 20.9518L128.344 20.9571L128.991 21.72ZM146.991 19.128L147.404 18.2176L147.393 18.2124L147.381 18.2074L146.991 19.128ZM147.783 19.488L147.369 20.3984L147.577 20.493L147.805 20.4877L147.783 19.488ZM160.383 19.2H161.383V18.1769L160.36 18.2003L160.383 19.2ZM160.383 23.16L160.525 24.1497L161.383 24.026V23.16H160.383ZM153.399 24.168L153.256 23.1783L151.587 23.4191L152.599 24.768L153.399 24.168ZM151.095 42.024L151.726 42.7998L151.733 42.7933L151.095 42.024ZM135.183 57V56H134.99L134.811 56.0715L135.183 57ZM133.743 57.864L133.188 57.0319L133.155 57.0536L133.125 57.0777L133.743 57.864ZM132.159 59.304L131.411 58.6396L131.41 58.6414L132.159 59.304ZM133.239 68.304L132.81 69.2078L132.819 69.212L133.239 68.304ZM150.087 58.224L149.617 59.1072L149.629 59.113L150.087 58.224ZM133.959 38.136L133.196 38.783L133.201 38.7888L133.206 38.7945L133.959 38.136ZM146.127 38.424L145.407 37.7294L145.407 37.7299L146.127 38.424ZM139.503 44.48C137.453 44.48 135.753 44.2698 134.381 43.8717L133.824 45.7923C135.428 46.2582 137.328 46.48 139.503 46.48V44.48ZM133.104 44.7789L132.744 51.5469L134.741 51.6531L135.101 44.8851L133.104 44.7789ZM133.743 52.6H144.903V50.6H133.743V52.6ZM144.903 52.6C149.505 52.6 152.837 53.4729 155.043 55.0734L156.218 53.4546C153.528 51.5031 149.708 50.6 144.903 50.6V52.6ZM155.043 55.0734C157.181 56.6241 158.303 58.9792 158.303 62.328H160.303C160.303 58.4768 158.976 55.4559 156.218 53.4546L155.043 55.0734ZM158.303 62.328C158.303 65.8924 156.875 68.661 153.97 70.7294L155.131 72.3586C158.562 69.915 160.303 66.5396 160.303 62.328H158.303ZM153.962 70.7353C151.038 72.8623 146.627 74 140.583 74V76C146.826 76 151.727 74.8337 155.139 72.3527L153.962 70.7353ZM140.583 74C134.891 74 130.789 73.1345 128.14 71.5341C125.572 69.9826 124.303 67.7045 124.303 64.56H122.303C122.303 68.3755 123.913 71.3174 127.105 73.2459C130.216 75.1255 134.754 76 140.583 76V74ZM124.303 64.56C124.303 61.9647 125.654 59.6759 128.675 57.6919L127.578 56.0201C124.167 58.2601 122.303 61.1073 122.303 64.56H124.303ZM128.656 57.704C129.353 57.2687 130.199 56.8653 131.204 56.4998L130.521 54.6202C129.414 55.0227 128.436 55.4833 127.597 56.008L128.656 57.704ZM131.009 54.5708C129.865 54.4013 129 54.0102 128.356 53.4422L127.033 54.9418C128.021 55.8138 129.268 56.3347 130.716 56.5492L131.009 54.5708ZM128.378 53.4625C127.778 52.8996 127.543 52.3361 127.543 51.744H125.543C125.543 52.9759 126.075 54.0444 127.011 54.9215L128.378 53.4625ZM127.543 51.744C127.543 51.1333 127.727 50.2974 128.171 49.2044C128.611 48.1213 129.283 46.8411 130.201 45.3584L128.5 44.3056C127.546 45.8469 126.814 47.2307 126.318 48.4516C125.826 49.6626 125.543 50.7707 125.543 51.744H127.543ZM130.201 45.3584L131.137 43.8464L129.436 42.7936L128.5 44.3056L130.201 45.3584ZM130.603 42.3713C130.398 42.3029 129.936 42.0124 129.17 41.2945L127.803 42.7535C128.573 43.4756 129.311 44.0491 129.97 44.2687L130.603 42.3713ZM129.194 41.3169C128.512 40.6355 127.956 39.9659 127.519 39.3093L125.854 40.4187C126.377 41.2021 127.021 41.9725 127.779 42.7311L129.194 41.3169ZM127.528 39.3232C126.362 37.5106 125.743 35.1452 125.743 32.16H123.743C123.743 35.4148 124.419 38.1854 125.845 40.4048L127.528 39.3232ZM125.743 32.16C125.743 27.8206 127.08 24.6501 129.637 22.4829L128.344 20.9571C125.237 23.5899 123.743 27.3794 123.743 32.16H125.743ZM129.631 22.4882C132.284 20.2773 135.899 19.12 140.583 19.12V17.12C135.57 17.12 131.457 18.3627 128.35 20.9518L129.631 22.4882ZM140.583 19.12C143.204 19.12 145.189 19.4501 146.6 20.0486L147.381 18.2074C145.624 17.4619 143.337 17.12 140.583 17.12V19.12ZM146.577 20.0384L147.369 20.3984L148.196 18.5776L147.404 18.2176L146.577 20.0384ZM147.805 20.4877L160.405 20.1997L160.36 18.2003L147.76 18.4883L147.805 20.4877ZM159.383 19.2V23.16H161.383V19.2H159.383ZM160.24 22.1703L153.256 23.1783L153.541 25.1577L160.525 24.1497L160.24 22.1703ZM152.599 24.768C153.718 26.2611 154.343 28.4436 154.343 31.44H156.343C156.343 28.1964 155.671 25.5309 154.199 23.568L152.599 24.768ZM154.343 31.44C154.343 35.9359 152.998 39.1432 150.456 41.2547L151.733 42.7933C154.855 40.2008 156.343 36.3521 156.343 31.44H154.343ZM150.463 41.2483C147.862 43.3644 144.247 44.48 139.503 44.48V46.48C144.55 46.48 148.663 45.2916 151.726 42.7997L150.463 41.2483ZM143.103 56H135.183V58H143.103V56ZM134.811 56.0715C134.456 56.2136 133.886 56.5666 133.188 57.0319L134.297 58.6961C135.039 58.2014 135.429 57.9784 135.554 57.9285L134.811 56.0715ZM133.125 57.0777C132.426 57.6268 131.848 58.1476 131.411 58.6396L132.906 59.9684C133.237 59.5964 133.715 59.1572 134.36 58.6503L133.125 57.0777ZM131.41 58.6414C130.159 60.0555 129.503 61.6784 129.503 63.48H131.503C131.503 62.2096 131.95 61.0485 132.907 59.9666L131.41 58.6414ZM129.503 63.48C129.503 64.7827 129.755 65.9533 130.317 66.9433C130.884 67.9428 131.73 68.6961 132.81 69.2077L133.667 67.4003C132.923 67.0479 132.401 66.5652 132.056 65.9567C131.706 65.3387 131.503 64.5293 131.503 63.48H129.503ZM132.819 69.212C134.89 70.1677 137.873 70.6 141.663 70.6V68.6C137.964 68.6 135.331 68.1683 133.658 67.396L132.819 69.212ZM141.663 70.6C145.336 70.6 148.262 70.0242 150.298 68.7348C152.411 67.3966 153.463 65.3538 153.463 62.76H151.463C151.463 64.7262 150.714 66.1034 149.227 67.0452C147.663 68.0358 145.189 68.6 141.663 68.6V70.6ZM153.463 62.76C153.463 60.2845 152.547 58.3665 150.544 57.335L149.629 59.113C150.794 59.7135 151.463 60.8195 151.463 62.76H153.463ZM150.556 57.3409C148.802 56.4091 146.275 56 143.103 56V58C146.17 58 148.299 58.4069 149.617 59.1071L150.556 57.3409ZM140.223 22.16C137.297 22.16 134.922 22.9253 133.291 24.6281C131.666 26.3229 130.943 28.7762 130.943 31.8H132.943C132.943 29.0638 133.599 27.1971 134.734 26.0119C135.863 24.8347 137.628 24.16 140.223 24.16V22.16ZM130.943 31.8C130.943 34.6112 131.661 36.9737 133.196 38.783L134.721 37.489C133.568 36.1303 132.943 34.2688 132.943 31.8H130.943ZM133.206 38.7945C134.785 40.5993 137.035 41.44 139.791 41.44V39.44C137.458 39.44 135.82 38.7447 134.711 37.4775L133.206 38.7945ZM139.791 41.44C142.839 41.44 145.278 40.7444 146.846 39.1181L145.407 37.7299C144.383 38.7916 142.598 39.44 139.791 39.44V41.44ZM146.846 39.1186C148.448 37.4588 149.143 34.9421 149.143 31.8H147.143C147.143 34.7059 146.493 36.6052 145.407 37.7294L146.846 39.1186ZM149.143 31.8C149.143 28.7864 148.454 26.3396 146.9 24.6443C145.33 22.9325 143.04 22.16 140.223 22.16V24.16C142.685 24.16 144.355 24.8275 145.425 25.9957C146.511 27.1804 147.143 29.0536 147.143 31.8H149.143ZM176.94 18.84L177.932 18.7176L177.821 17.8128L176.909 17.8405L176.94 18.84ZM177.588 24.096L176.595 24.2184L176.865 26.4089L178.334 24.7615L177.588 24.096ZM194.148 18.984L193.847 19.9376L193.865 19.9436L193.885 19.9488L194.148 18.984ZM194.94 19.2L195.939 19.2345L195.966 18.4435L195.203 18.2352L194.94 19.2ZM194.58 29.64V30.64H195.546L195.579 29.6745L194.58 29.64ZM189.9 29.64L188.919 29.8361L189.08 30.64H189.9V29.64ZM188.82 24.24L189.8 24.0439L189.639 23.24H188.82V24.24ZM178.38 29.856L177.582 29.2527L177.38 29.5204V29.856H178.38ZM178.38 51.24H177.38V52.0208L178.137 52.2101L178.38 51.24ZM185.58 53.04H186.58V52.2592L185.822 52.0699L185.58 53.04ZM185.58 57V58H186.58V57H185.58ZM165.06 57H164.06V58H165.06V57ZM165.06 53.04L164.778 52.0806L164.06 52.2918V53.04H165.06ZM171.18 51.24L171.462 52.1994L172.18 51.9882V51.24H171.18ZM171.18 24.6H172.18V23.808L171.409 23.6266L171.18 24.6ZM165.06 23.16H164.06V23.952L164.831 24.1334L165.06 23.16ZM165.06 19.2L165.029 18.2005L164.06 18.2298V19.2H165.06ZM175.947 18.9624L176.595 24.2184L178.58 23.9736L177.932 18.7176L175.947 18.9624ZM178.334 24.7615C181.782 20.8937 185.157 19.12 188.46 19.12V17.12C184.371 17.12 180.497 19.3303 176.841 23.4305L178.334 24.7615ZM188.46 19.12C190.329 19.12 192.123 19.3932 193.847 19.9376L194.449 18.0304C192.525 17.4228 190.527 17.12 188.46 17.12V19.12ZM193.885 19.9488L194.677 20.1648L195.203 18.2352L194.411 18.0192L193.885 19.9488ZM193.94 19.1655L193.58 29.6055L195.579 29.6745L195.939 19.2345L193.94 19.1655ZM194.58 28.64H189.9V30.64H194.58V28.64ZM190.88 29.4439L189.8 24.0439L187.839 24.4361L188.919 29.8361L190.88 29.4439ZM188.82 23.24C184.332 23.24 180.574 25.298 177.582 29.2527L179.177 30.4593C181.85 26.926 185.051 25.24 188.82 25.24V23.24ZM177.38 29.856V51.24H179.38V29.856H177.38ZM178.137 52.2101L185.337 54.0101L185.822 52.0699L178.622 50.2699L178.137 52.2101ZM184.58 53.04V57H186.58V53.04H184.58ZM185.58 56H165.06V58H185.58V56ZM166.06 57V53.04H164.06V57H166.06ZM165.342 53.9994L171.462 52.1994L170.898 50.2806L164.778 52.0806L165.342 53.9994ZM172.18 51.24V24.6H170.18V51.24H172.18ZM171.409 23.6266L165.289 22.1866L164.831 24.1334L170.951 25.5734L171.409 23.6266ZM166.06 23.16V19.2H164.06V23.16H166.06ZM165.09 20.1995L176.97 19.8395L176.909 17.8405L165.029 18.2005L165.09 20.1995ZM215.122 57L214.218 56.5725L213.543 58H215.122V57ZM238.954 6.6V5.6H238.321L238.05 6.17252L238.954 6.6ZM246.514 6.6L247.418 7.02747L248.093 5.6H246.514V6.6ZM222.682 57V58H223.315L223.586 57.4275L222.682 57ZM216.026 57.4275L239.858 7.02747L238.05 6.17252L214.218 56.5725L216.026 57.4275ZM238.954 7.6H246.514V5.6H238.954V7.6ZM245.61 6.17252L221.778 56.5725L223.586 57.4275L247.418 7.02747L245.61 6.17252ZM222.682 56H215.122V58H222.682V56ZM252.264 51.24L251.844 50.3324L251.264 50.6007V51.24H252.264ZM281.064 37.92L281.484 38.8276L283.473 37.9075L281.474 37.0081L281.064 37.92ZM252.264 24.96H251.264V25.6066L251.854 25.8719L252.264 24.96ZM252.264 18.84L252.675 17.9284L251.264 17.292V18.84H252.264ZM288.984 35.4H289.984V34.754L289.395 34.4884L288.984 35.4ZM288.984 40.44L289.403 41.3482L289.984 41.0803V40.44H288.984ZM252.264 57.36H251.264V58.9218L252.683 58.2682L252.264 57.36ZM252.684 52.1476L281.484 38.8276L280.644 37.0124L251.844 50.3324L252.684 52.1476ZM281.474 37.0081L252.674 24.0481L251.854 25.8719L280.654 38.8319L281.474 37.0081ZM253.264 24.96V18.84H251.264V24.96H253.264ZM251.853 19.7516L288.573 36.3116L289.395 34.4884L252.675 17.9284L251.853 19.7516ZM287.984 35.4V40.44H289.984V35.4H287.984ZM288.566 39.5318L251.846 56.4518L252.683 58.2682L289.403 41.3482L288.566 39.5318ZM253.264 57.36V51.24H251.264V57.36H253.264Z" fill="#252835"/>
</svg>
